<svg width="289" height="41" viewBox="0 0 289 41" fill="none" xmlns="http://www.w3.org/2000/svg">
<rect x="22.6668" y="0.320633" width="17.3333" height="17.3333" rx="3.64755" fill="white"/>
<path d="M0 3.96818C0 1.9537 1.63306 0.320633 3.64755 0.320633H9.33333C14.1198 0.320633 18 4.20083 18 8.9873C18 13.7738 14.1198 17.654 9.33334 17.654H3.64755C1.63306 17.654 0 16.0209 0 14.0064V3.96818Z" fill="white"/>
<rect x="22" y="21.654" width="18.6667" height="18.6667" rx="9.33334" fill="white"/>
<rect y="22.1388" width="17.3333" height="17.3333" rx="3.64755" fill="white"/>
<path fill-rule="evenodd" clip-rule="evenodd" d="M202.13 16.3383V31.1844H206.712V16.3383H202.13ZM204.421 9.00688C202.954 9.00688 201.763 10.1982 201.763 11.6645C201.763 13.1308 202.954 14.3221 204.421 14.3221C205.887 14.3221 207.078 13.1308 207.078 11.6645C207.078 10.1982 205.887 9.00688 204.421 9.00688ZM250.921 16.3383V31.1844H255.503V16.3383H250.921ZM253.212 9.00688C251.746 9.00688 250.554 10.1982 250.554 11.6645C250.554 13.1308 251.746 14.3221 253.212 14.3221C254.678 14.3221 255.87 13.1308 255.87 11.6645C255.87 10.1982 254.678 9.00688 253.212 9.00688ZM257.646 23.7614C257.646 19.0265 261.312 15.9717 265.894 15.9717C270.476 15.9717 274.142 19.0265 274.142 23.7614C274.142 28.4962 270.476 31.551 265.894 31.551C261.312 31.551 257.646 28.4962 257.646 23.7614ZM262.228 23.7614C262.228 25.9913 263.603 27.5187 265.894 27.5187C268.185 27.5187 269.56 25.9913 269.56 23.7614C269.56 21.5314 268.185 20.004 265.894 20.004C263.603 20.004 262.228 21.5314 262.228 23.7614ZM287.746 17.9268L284.936 20.7066C284.264 19.8818 283.378 19.4542 282.278 19.4542C281.515 19.4542 280.598 19.7902 280.598 20.6761C280.598 21.521 281.739 21.7664 283.144 22.0685C285.396 22.5528 288.327 23.1832 288.327 26.6634C288.327 30.4513 284.661 31.551 281.484 31.551C279.407 31.551 277.116 31.0317 275.649 29.5348L278.429 26.4495C279.285 27.4881 280.293 28.0686 281.667 28.0686C282.706 28.0686 283.744 27.7936 283.744 26.9994C283.744 26.0613 282.547 25.8051 281.094 25.4943C278.857 25.0158 276.016 24.408 276.016 20.9815C276.016 17.4991 279.132 15.9717 282.248 15.9717C284.203 15.9717 286.372 16.4605 287.746 17.9268ZM238.432 31.1844V16.3383H243.014V18.721H243.075C244.053 16.9187 245.336 15.9717 247.352 15.9717C247.871 15.9717 248.452 16.0023 248.879 16.1245V20.3095C248.238 20.1262 247.596 20.004 246.924 20.004C243.442 20.004 243.014 22.0201 243.014 24.9833V31.1844H238.432ZM231.647 29.321V31.1844H235.863V23.6392C235.863 18.6905 234.427 15.9717 229.081 15.9717C226.668 15.9717 224.224 16.766 222.544 18.3544L224.988 20.8593C225.965 19.7596 227.218 19.0876 228.714 19.0876C230.303 19.0876 231.647 20.1262 231.647 21.7452C227.829 21.7452 221.597 21.8369 221.597 26.9688C221.597 29.9625 224.102 31.551 226.882 31.551C228.745 31.551 230.578 30.9095 231.586 29.321H231.647ZM230.517 24.6778H231.647V25.6553C231.647 27.4881 229.967 28.4351 228.165 28.4351C227.157 28.4351 225.996 27.9158 225.996 26.8161C225.996 24.8 229.112 24.6778 230.517 24.6778ZM220.307 16.3382V20.0039H216.275V24.9526C216.275 26.5411 216.458 27.7019 218.444 27.7019C218.932 27.7019 219.91 27.6408 220.307 27.2742V31.0927C219.299 31.4592 218.169 31.5509 217.1 31.5509C214.045 31.5509 211.693 30.2984 211.693 27.0604V20.0039H208.76V16.3382H211.693V11.9394H216.275V16.3382H220.307ZM185.331 31.1844V16.3383H189.73V18.3544H189.791C190.402 17.1936 191.898 15.9717 194.128 15.9717C198.772 15.9717 199.627 19.0265 199.627 22.9977V31.1844H195.045V23.9141C195.045 22.2034 195.014 20.004 192.662 20.004C190.279 20.004 189.913 21.8674 189.913 23.7919V31.1844H185.331ZM182.24 22.8445V9.55638H177.475V22.6613C177.475 25.3189 175.642 27.335 173.137 27.335C170.601 27.335 168.769 25.3189 168.769 22.6613V9.55638H164.003V22.8445C164.003 27.946 167.119 31.7339 173.137 31.7339C179.124 31.7339 182.24 27.946 182.24 22.8445Z" fill="white"/>
<path fill-rule="evenodd" clip-rule="evenodd" d="M118.513 16.3383V31.1844H123.095V16.3383H118.513ZM120.804 9.00686C119.338 9.00686 118.147 10.1982 118.147 11.6645C118.147 13.1308 119.338 14.3221 120.804 14.3221C122.271 14.3221 123.462 13.1308 123.462 11.6645C123.462 10.1982 122.271 9.00686 120.804 9.00686ZM125.066 23.761C125.066 19.0261 128.731 15.9714 133.313 15.9714C137.896 15.9714 141.561 19.0261 141.561 23.761C141.561 28.4959 137.896 31.5506 133.313 31.5506C128.731 31.5506 125.066 28.4959 125.066 23.761ZM129.648 23.761C129.648 25.991 131.022 27.5183 133.313 27.5183C135.605 27.5183 136.979 25.991 136.979 23.761C136.979 21.531 135.605 20.0036 133.313 20.0036C131.022 20.0036 129.648 21.531 129.648 23.761ZM154.936 17.9264L152.126 20.7062C151.453 19.8815 150.568 19.4538 149.468 19.4538C148.704 19.4538 147.788 19.7898 147.788 20.6757C147.788 21.5207 148.928 21.766 150.333 22.0681C152.585 22.5525 155.516 23.1828 155.516 26.663C155.516 30.4509 151.851 31.5506 148.674 31.5506C146.596 31.5506 144.305 31.0313 142.839 29.5345L145.619 26.4492C146.474 27.4878 147.482 28.0682 148.857 28.0682C149.896 28.0682 150.934 27.7933 150.934 26.999C150.934 26.061 149.736 25.8047 148.284 25.494C146.047 25.0154 143.206 24.4076 143.206 20.9812C143.206 17.4988 146.322 15.9714 149.437 15.9714C151.392 15.9714 153.561 16.4601 154.936 17.9264ZM116.32 17.957L113.296 21.1339C112.838 20.4924 111.983 20.0036 111.036 20.0036C108.745 20.0036 107.37 21.531 107.37 23.761C107.37 25.991 108.745 27.5183 111.036 27.5183C112.044 27.5183 112.777 26.999 113.296 26.3881L116.32 29.565C114.885 31.0313 112.777 31.5506 111.036 31.5506C106.454 31.5506 102.788 28.4959 102.788 23.761C102.788 19.0261 106.454 15.9714 111.036 15.9714C112.777 15.9714 114.885 16.4907 116.32 17.957ZM100.371 28.618L97.1633 26.2659C96.3996 27.3045 95.3916 28.0682 93.8948 28.0682C92.123 28.0682 90.8095 26.9379 90.4429 25.1967H101.073V23.761C101.073 19.0261 98.3852 15.9714 94.1086 15.9714C89.5265 15.9714 85.8608 19.0261 85.8608 23.761C85.8608 28.4959 89.5265 31.5506 94.1086 31.5506C96.4913 31.5506 98.9045 30.4814 100.371 28.618ZM96.4913 22.0809H90.4429C90.5651 20.6451 91.6648 19.2705 93.6809 19.2705C95.3305 19.2705 96.5218 20.5535 96.4913 22.0809ZM74.7214 31.184V16.3379H79.3036V18.7207H79.3647C80.3422 16.9183 81.6252 15.9714 83.6413 15.9714C84.1606 15.9714 84.741 16.0019 85.1687 16.1241V20.3091C84.5272 20.1258 83.8857 20.0036 83.2136 20.0036C79.7312 20.0036 79.3036 22.0198 79.3036 24.9829V31.184H74.7214ZM56.3663 9.55706V31.1847H61.1317V22.7536H64.6141C69.1657 22.7536 72.6175 21.1957 72.6175 16.1248C72.6175 10.9928 68.8908 9.55706 64.4003 9.55706H56.3663ZM61.1317 18.7213V13.5893H63.5755C65.4083 13.5893 67.6688 13.8948 67.6688 16.1248C67.6688 18.1409 65.9887 18.7213 64.3086 18.7213H61.1317Z" fill="white"/>
</svg>
