<svg width="25" height="25" viewBox="0 0 25 25" fill="none" xmlns="http://www.w3.org/2000/svg">
<path d="M20.3031 21.5621L18.3581 19.6171C16.661 20.3709 14.825 20.7609 12.9681 20.7621C10.48 20.7649 8.04189 20.064 5.93518 18.7403C3.82848 17.4166 2.1391 15.524 1.06209 13.2811C0.999792 13.1463 0.967529 12.9996 0.967529 12.8511C0.967529 12.7026 0.999792 12.5559 1.06209 12.4211C2.1195 10.2326 3.75909 8.37747 5.80109 7.05912L4.22109 5.48112C4.05602 5.28981 3.96951 5.04309 3.97893 4.79059C3.98835 4.53808 4.09302 4.29851 4.27188 4.12002C4.45074 3.94154 4.69054 3.83739 4.94307 3.8285C5.19559 3.81961 5.44212 3.90665 5.63309 4.07212L19.2431 17.6861C19.2578 17.6994 19.2718 17.7134 19.2851 17.7281L21.7091 20.1541C21.8947 20.3414 21.9989 20.5944 21.9989 20.8581C21.9989 21.1218 21.8947 21.3748 21.7091 21.5621C21.6168 21.6545 21.5072 21.7277 21.3866 21.7777C21.2659 21.8277 21.1367 21.8534 21.0061 21.8534C20.8755 21.8534 20.7462 21.8277 20.6256 21.7777C20.505 21.7277 20.3954 21.6545 20.3031 21.5621ZM3.07809 12.8551C4.0407 14.6407 5.46791 16.1329 7.20881 17.1741C8.9497 18.2153 10.9396 18.7667 12.9681 18.7701C14.2866 18.7732 15.5953 18.5436 16.8341 18.0921L15.1141 16.3741C14.462 16.756 13.7198 16.957 12.9641 16.9561C11.8531 16.9593 10.7862 16.5214 9.99778 15.7386C9.20936 14.9558 8.76385 13.8921 8.75909 12.7811C8.76021 12.0205 8.97092 11.2748 9.36809 10.6261L7.24809 8.50812C5.48812 9.55029 4.04624 11.0534 3.07809 12.8551ZM10.7521 12.7811C10.7574 13.3629 10.9929 13.9188 11.407 14.3274C11.8212 14.7359 12.3803 14.9638 12.9621 14.9611C13.1812 14.9618 13.3992 14.9301 13.6091 14.8671L10.8581 12.1171C10.7878 12.3314 10.752 12.5556 10.7521 12.7811ZM20.8421 16.9431C20.7497 16.8506 20.6766 16.7406 20.627 16.6195C20.5774 16.4985 20.5524 16.3688 20.5533 16.238C20.5542 16.1072 20.5811 15.9779 20.6324 15.8576C20.6837 15.7373 20.7584 15.6284 20.8521 15.5371C21.6506 14.7487 22.3249 13.8437 22.8521 12.8531C21.8902 11.0674 20.4632 9.57518 18.7223 8.53441C16.9814 7.49363 14.9914 6.9431 12.9631 6.94112C12.4691 6.94232 11.9757 6.97572 11.4861 7.04112C11.2366 7.05121 10.9924 6.96762 10.8015 6.80679C10.6105 6.64595 10.4866 6.41951 10.4542 6.17197C10.4217 5.92442 10.483 5.67369 10.626 5.46906C10.7691 5.26443 10.9835 5.1207 11.2271 5.06612C11.8027 4.98986 12.3825 4.95012 12.9631 4.94712C15.4509 4.94385 17.8888 5.64436 19.9954 6.96776C22.102 8.29117 23.7912 10.1835 24.8681 12.4261C24.9339 12.5599 24.9681 12.707 24.9681 12.8561C24.9681 13.0052 24.9339 13.1523 24.8681 13.2861C24.2154 14.652 23.3294 15.8936 22.2501 16.9551C22.0633 17.1388 21.812 17.2418 21.5501 17.2421C21.4182 17.2424 21.2876 17.2163 21.166 17.1653C21.0444 17.1143 20.9343 17.0394 20.8421 16.9451V16.9431Z" fill="#000E15"/>
</svg>
