<svg width="25" height="25" viewBox="0 0 25 25" fill="none" xmlns="http://www.w3.org/2000/svg">
<path d="M12.303 8.35328C13.4124 8.35115 14.4774 8.78885 15.2646 9.57047C16.0519 10.3521 16.4972 11.4139 16.503 12.5233C16.503 13.6372 16.0605 14.7055 15.2729 15.4931C14.4852 16.2808 13.4169 16.7233 12.303 16.7233C11.1891 16.7233 10.1208 16.2808 9.33318 15.4931C8.54553 14.7055 8.10303 13.6372 8.10303 12.5233C8.10885 11.4139 8.55417 10.3521 9.34142 9.57047C10.1287 8.78885 11.1937 8.35115 12.303 8.35328ZM12.303 14.7023C12.886 14.7071 13.447 14.4803 13.8629 14.0717C14.2788 13.6632 14.5155 13.1062 14.521 12.5233C14.521 11.9364 14.2879 11.3735 13.8729 10.9585C13.4578 10.5434 12.895 10.3103 12.308 10.3103C11.7211 10.3103 11.1582 10.5434 10.7432 10.9585C10.3282 11.3735 10.095 11.9364 10.095 12.5233C10.1006 13.1045 10.3359 13.6599 10.7496 14.0682C11.1633 14.4765 11.7218 14.7044 12.303 14.7023Z" fill="#000E15"/>
<path d="M12.308 4.62332C14.7947 4.61777 17.232 5.31651 19.338 6.63868C21.444 7.96084 23.1325 9.85237 24.208 12.0943C24.2719 12.2285 24.305 12.3752 24.305 12.5238C24.305 12.6724 24.2719 12.8191 24.208 12.9533C23.152 15.1589 21.501 17.0257 19.441 18.3433C17.3119 19.702 14.8388 20.4238 12.313 20.4238C9.78733 20.4238 7.31422 19.702 5.18505 18.3433C3.12413 17.0264 1.47206 15.1599 0.415048 12.9543C0.351229 12.8201 0.318115 12.6734 0.318115 12.5248C0.318115 12.3762 0.351229 12.2295 0.415048 12.0953C1.48998 9.85426 3.17733 7.96324 5.28196 6.64097C7.38659 5.3187 9.82252 4.61918 12.308 4.62332ZM22.1891 12.5233C21.2298 10.7374 19.8045 9.24476 18.0646 8.20428C16.3247 7.1638 14.3353 6.61435 12.308 6.61435C10.2808 6.61435 8.29142 7.1638 6.55153 8.20428C4.81164 9.24476 3.38628 10.7374 2.42705 12.5233C3.38651 14.309 4.81195 15.8013 6.55181 16.8416C8.29167 17.8819 10.2809 18.4312 12.308 18.4312C14.3352 18.4312 16.3244 17.8819 18.0643 16.8416C19.8041 15.8013 21.2296 14.309 22.1891 12.5233Z" fill="#000E15"/>
</svg>
